<svg id="National-Geographic-Logo" xmlns="http://www.w3.org/2000/svg" width="198.144" height="58.992" viewBox="0 0 198.144 58.992">
  <path id="Path_2" data-name="Path 2" d="M0,0V58.992H40.627V0ZM34.751,53.053H5.855V5.943h28.9Z" fill="#fbd42c"/>
  <path id="Path_3" data-name="Path 3" d="M64.838,20.568h-.057c-3.241-5.279-6.513-9.942-9.813-14.636H52.45V26.465h2.779V11.739h.028c3.273,5.31,6.543,10,9.844,14.726h2.518V5.932H64.838Zm20.061,5.9L78.443,5.932H75.55L68.544,26.465h3.01l1.767-5.6h6.106l1.593,5.6ZM74.217,18.338c.811-2.7,1.622-5.188,2.345-8.36h.059c.811,3.171,1.534,5.661,2.287,8.36Zm13.952,8.127h3.474V8.69H96.97V5.932H82.844V8.69H88.17V26.465ZM101.542,5.932H98.1V26.465h3.444Zm10.713,20.883c5.3,0,8.6-4.78,8.6-10.911,0-5.749-3.649-10.326-8.6-10.326s-8.6,4.577-8.6,10.326C103.655,22.036,106.955,26.815,112.255,26.815Zm0-18.3c3.445,0,4.891,3.607,4.891,7.392,0,3.93-1.272,7.978-4.891,7.978s-4.892-4.047-4.892-7.978C107.363,12.12,108.81,8.513,112.255,8.513Zm13.487,3.226h.032c3.27,5.31,6.54,10,9.841,14.726h2.518V5.932h-2.779V20.568H135.3c-3.241-5.279-6.513-9.942-9.813-14.636h-2.518V26.465h2.777V11.739Zm18.091,9.123h6.11l1.592,5.6h3.878L148.959,5.932h-2.9l-7.007,20.533h3.014Zm3.246-10.884h.057c.809,3.171,1.533,5.661,2.288,8.36h-4.693C145.544,15.639,146.352,13.149,147.079,9.978Zm19.652,13.728h-6.859V5.932h-3.446V26.465h10.306V23.706ZM62.006,49.949a5.023,5.023,0,0,1-2.431.5c-2.981,0-5.876-2.876-5.876-7.744,0-4.663,2.518-7.627,6.224-7.627a7.457,7.457,0,0,1,3.7,1.084l1.128-2.433a8.56,8.56,0,0,0-4.921-1.585c-6.078,0-9.842,4.9-9.842,10.5,0,6.043,3.764,10.737,9.725,10.737a15.721,15.721,0,0,0,5.763-1.262V43.641H62.006v6.308Zm10.1-6.306h5.675V40.887H72.107V35.255H77.9V32.5H68.635V53.031H78.94v-2.76H72.107Zm16.5-11.5c-4.951,0-8.6,4.576-8.6,10.326,0,6.13,3.3,10.912,8.6,10.912s8.6-4.782,8.6-10.912C97.205,36.721,93.558,32.145,88.609,32.145Zm0,18.3c-3.62,0-4.893-4.048-4.893-7.979,0-3.785,1.447-7.393,4.893-7.393S93.5,38.684,93.5,42.47C93.5,46.4,92.228,50.449,88.609,50.449Zm21.8-.5a5.022,5.022,0,0,1-2.432.5c-2.982,0-5.877-2.876-5.877-7.744,0-4.663,2.519-7.627,6.226-7.627a7.439,7.439,0,0,1,3.7,1.084l1.13-2.433a8.564,8.564,0,0,0-4.923-1.585c-6.076,0-9.839,4.9-9.839,10.5,0,6.043,3.763,10.737,9.727,10.737a15.724,15.724,0,0,0,5.76-1.262V43.641h-3.474v6.308Zm18.353-11.525c0-3.992-2.4-5.926-6.281-5.926h-5.414V53.031h3.473V45.287H122.1l3.271,7.744h3.965l-4.079-8.508A6.924,6.924,0,0,0,128.759,38.424Zm-6.774,4.222c-.349.03-1.161.06-1.449.089V35.256h1.537a2.96,2.96,0,0,1,3.209,3.313C125.282,41.325,123.635,42.559,121.985,42.646ZM136.4,32.5l-7.007,20.533H132.4l1.767-5.6h6.108l1.6,5.6h3.876L139.294,32.5ZM135.07,44.907c.81-2.7,1.62-5.194,2.344-8.361h.059c.809,3.167,1.533,5.66,2.287,8.361Zm36.1-4.519h-7.209V32.5h-3.445V53.031h3.445V43.144h7.209v9.887h3.472V32.554h-3.472Zm6.8,12.641h3.444V32.5h-3.444Zm15.6-2.58c-3.358,0-6.2-2.876-6.2-7.744,0-4.663,2.579-7.627,6.109-7.627a7.239,7.239,0,0,1,3.562,1.143l1.1-2.491a8.454,8.454,0,0,0-4.66-1.585c-6.05,0-9.785,4.9-9.785,10.5,0,6.043,3.764,10.737,9.729,10.737A8.737,8.737,0,0,0,198,51.976l-.954-2.553A6.5,6.5,0,0,1,193.57,50.449ZM152.262,32.5h-5.41V53.031h3.474V45.287h1.561a6.669,6.669,0,0,0,6.658-6.863C158.544,34.432,156.144,32.5,152.262,32.5Zm-.491,10.148c-.347.027-1.185.055-1.446.082V35.255h1.561c2.028,0,3.186,1.2,3.186,3.313C155.071,41.325,153.421,42.559,151.771,42.646Z"/>
</svg>
